<?xml version="1.0" standalone="no"?>
<!DOCTYPE svg PUBLIC "-//W3C//DTD SVG 20010904//EN"
 "http://www.w3.org/TR/2001/REC-SVG-20010904/DTD/svg10.dtd">
<svg version="1.0" xmlns="http://www.w3.org/2000/svg"
 width="182.000000pt" height="181.000000pt" viewBox="0 0 182.000000 181.000000"
 preserveAspectRatio="xMidYMid meet">

<g transform="translate(0.000000,181.000000) scale(0.100000,-0.100000)"
fill="#000000" stroke="none">
<path d="M745 1791 c-109 -24 -180 -48 -245 -84 -126 -69 -291 -212 -275 -238
5 -7 4 -10 -3 -6 -13 9 -74 -73 -67 -91 2 -7 0 -10 -5 -7 -10 6 -72 -109 -94
-177 -50 -154 -61 -338 -26 -473 11 -43 24 -83 30 -90 5 -6 12 -29 15 -49 5
-40 69 -158 120 -221 54 -67 140 -155 151 -155 5 0 23 -13 39 -30 16 -16 31
-28 33 -25 3 2 24 -9 48 -26 43 -29 70 -40 106 -42 9 -1 15 -4 12 -8 -2 -4 19
-16 48 -27 136 -50 437 -56 553 -11 105 41 216 99 274 143 107 83 222 218 257
301 8 19 19 35 25 35 5 0 7 4 4 10 -3 5 0 20 7 32 58 104 84 331 58 498 -12
75 -49 192 -58 186 -4 -2 -8 9 -9 25 -2 23 -65 140 -94 173 -5 6 -18 2 -31
-10 l-23 -19 19 23 c19 22 19 22 -10 54 -16 18 -20 26 -9 18 11 -7 2 4 -20 26
-22 21 -44 37 -48 36 -5 -1 -6 2 -2 7 3 6 -5 15 -17 22 -13 6 -39 26 -58 44
-42 39 -189 118 -207 111 -7 -3 -13 -2 -13 3 0 4 -6 8 -12 8 -7 1 -53 13 -103
27 -60 17 -111 25 -155 24 l-65 -1 50 -7 c49 -7 48 -7 -22 -8 -43 -1 -73 2
-73 8 0 12 -7 12 -105 -9z m72 -73 c-3 -7 -5 -2 -5 12 0 14 2 19 5 13 2 -7 2
-19 0 -25z m140 -15 c-3 -10 -5 -2 -5 17 0 19 2 27 5 18 2 -10 2 -26 0 -35z
m80 15 c-3 -7 -5 -2 -5 12 0 14 2 19 5 13 2 -7 2 -19 0 -25z m-293 -3 c-4 -8
-8 -15 -10 -15 -2 0 -4 7 -4 15 0 8 4 15 10 15 5 0 7 -7 4 -15z m113 -51 c-3
-3 -12 -4 -19 -1 -8 3 -5 6 6 6 11 1 17 -2 13 -5z m150 0 c-3 -3 -12 -4 -19
-1 -8 3 -5 6 6 6 11 1 17 -2 13 -5z m-467 -98 c0 -12 -5 -7 -19 24 -11 24 -11
24 3 6 9 -11 16 -24 16 -30z m781 7 c-12 -20 -14 -14 -5 12 4 9 9 14 11 11 3
-2 0 -13 -6 -23z m223 -52 c3 -4 -4 -17 -17 -27 -22 -19 -22 -19 -4 2 9 11 14
24 10 27 -3 4 -4 7 0 7 3 0 8 -4 11 -9z m-1223 -18 c13 -16 12 -17 -3 -4 -10
7 -18 15 -18 17 0 8 8 3 21 -13z m266 -43 c88 -46 206 -133 195 -145 -4 -5 2
-5 13 0 33 13 177 17 223 7 23 -5 42 -7 42 -3 0 4 28 27 63 52 149 108 234
144 281 120 58 -32 93 -207 74 -376 -14 -122 -14 -125 7 -250 32 -200 6 -347
-74 -417 -20 -18 -28 -29 -19 -25 26 10 9 -25 -27 -55 -51 -43 -97 -62 -150
-62 -61 0 -142 21 -149 39 -12 31 -160 46 -237 25 -20 -6 -46 -19 -59 -30 -43
-38 -161 -46 -220 -15 -19 10 -48 29 -65 43 -33 27 -53 65 -31 56 8 -3 -5 14
-28 38 -23 24 -47 61 -54 83 -23 69 -26 219 -6 330 20 117 20 113 6 236 -18
151 6 313 54 364 33 35 69 32 161 -15z m-216 -7 c13 -16 12 -17 -3 -4 -10 7
-18 15 -18 17 0 8 8 3 21 -13z m1220 -16 c-10 -9 -11 -8 -5 6 3 10 9 15 12 12
3 -3 0 -11 -7 -18z m80 -110 c-10 -9 -11 -8 -5 6 3 10 9 15 12 12 3 -3 0 -11
-7 -18z m-1436 -35 c-3 -3 -11 0 -18 7 -9 10 -8 11 6 5 10 -3 15 -9 12 -12z
m-85 -72 c8 -5 11 -10 5 -10 -5 0 -17 5 -25 10 -8 5 -10 10 -5 10 6 0 17 -5
25 -10z m1527 -142 c-3 -8 -6 -5 -6 6 -1 11 2 17 5 13 3 -3 4 -12 1 -19z
m-1563 5 c-5 -5 -12 -12 -16 -18 -4 -6 -8 -2 -8 8 0 9 7 17 17 17 9 0 12 -3 7
-7z m1646 -3 c0 -5 -7 -7 -15 -4 -8 4 -15 8 -15 10 0 2 7 4 15 4 8 0 15 -4 15
-10z m-1657 -77 c-7 -2 -19 -2 -25 0 -7 3 -2 5 12 5 14 0 19 -2 13 -5z m1670
0 c-7 -2 -19 -2 -25 0 -7 3 -2 5 12 5 14 0 19 -2 13 -5z m-26 -45 c-3 -8 -6
-5 -6 6 -1 11 2 17 5 13 3 -3 4 -12 1 -19z m-1720 -95 c-2 -21 -4 -4 -4 37 0
41 2 58 4 38 2 -21 2 -55 0 -75z m91 0 c-10 -2 -26 -2 -35 0 -10 3 -2 5 17 5
19 0 27 -2 18 -5z m1645 0 c-7 -2 -21 -2 -30 0 -10 3 -4 5 12 5 17 0 24 -2 18
-5z m-1656 -45 c-3 -8 -6 -5 -6 6 -1 11 2 17 5 13 3 -3 4 -12 1 -19z m1640 0
c-3 -8 -6 -5 -6 6 -1 11 2 17 5 13 3 -3 4 -12 1 -19z m-1644 -35 c-7 -2 -19
-2 -25 0 -7 3 -2 5 12 5 14 0 19 -2 13 -5z m1670 0 c-7 -2 -19 -2 -25 0 -7 3
-2 5 12 5 14 0 19 -2 13 -5z m-1675 -238 c-3 -3 -9 2 -12 12 -6 14 -5 15 5 6
7 -7 10 -15 7 -18z m1512 -40 c11 -13 10 -14 -4 -9 -9 3 -16 10 -16 15 0 13 6
11 20 -6z m-1350 1 c0 -2 -7 -7 -16 -10 -8 -3 -12 -2 -9 4 6 10 25 14 25 6z
m20 -140 c0 -2 -8 -10 -17 -17 -16 -13 -17 -12 -4 4 13 16 21 21 21 13z m94
-26 c-6 -6 -10 -3 -10 10 0 13 4 16 10 10 7 -7 7 -13 0 -20z m1112 10 c0 -12
-4 -16 -9 -11 -5 5 -6 14 -3 20 10 15 12 14 12 -9z m112 -15 c-3 -3 -9 2 -12
12 -6 14 -5 15 5 6 7 -7 10 -15 7 -18z m-73 -35 c10 -11 16 -20 13 -20 -3 0
-13 9 -23 20 -10 11 -16 20 -13 20 3 0 13 -9 23 -20z m-1185 7 c0 -2 -9 -12
-19 -21 -14 -13 -21 -14 -27 -5 -4 7 -3 10 3 6 6 -4 16 0 23 8 12 14 20 19 20
12z m45 -77 c-3 -5 -12 -10 -18 -10 -7 0 -6 4 3 10 19 12 23 12 15 0z m1100
-8 c-3 -3 -11 0 -18 7 -9 10 -8 11 6 5 10 -3 15 -9 12 -12z m-952 -16 c-10
-13 -19 -23 -21 -21 -5 5 22 45 31 45 4 0 0 -11 -10 -24z m791 8 c5 -14 4 -15
-9 -4 -17 14 -19 20 -6 20 5 0 12 -7 15 -16z m-829 -64 c-3 -5 -12 -10 -18
-10 -7 0 -6 4 3 10 19 12 23 12 15 0z m740 0 c3 -6 -1 -7 -9 -4 -18 7 -21 14
-7 14 6 0 13 -4 16 -10z m-488 -6 c-3 -3 -12 -4 -19 -1 -8 3 -5 6 6 6 11 1 17
-2 13 -5z m380 0 c-3 -3 -12 -4 -19 -1 -8 3 -5 6 6 6 11 1 17 -2 13 -5z m127
-30 c3 -8 2 -12 -4 -9 -6 3 -10 10 -10 16 0 14 7 11 14 -7z m-517 -46 c-3 -8
-6 -5 -6 6 -1 11 2 17 5 13 3 -3 4 -12 1 -19z m80 -20 c-3 -7 -5 -2 -5 12 0
14 2 19 5 13 2 -7 2 -19 0 -25z m50 26 c-3 -3 -12 -4 -19 -1 -8 3 -5 6 6 6 11
1 17 -2 13 -5z m90 -16 c-3 -8 -6 -5 -6 6 -1 11 2 17 5 13 3 -3 4 -12 1 -19z
m50 16 c-3 -3 -12 -4 -19 -1 -8 3 -5 6 6 6 11 1 17 -2 13 -5z m30 -26 c-3 -7
-5 -2 -5 12 0 14 2 19 5 13 2 -7 2 -19 0 -25z"/>
<path d="M461 1414 c-30 -38 -41 -85 -48 -206 -8 -150 -5 -154 65 -86 65 64
198 153 242 163 17 4 30 10 30 13 0 10 -152 110 -193 127 -51 21 -73 19 -96
-11z m38 -7 c-9 -7 -23 -25 -33 -42 -15 -26 -16 -27 -10 -5 7 29 32 60 48 60
6 0 4 -6 -5 -13z"/>
<path d="M1291 1425 c-40 -18 -191 -116 -191 -125 0 -3 17 -12 38 -19 54 -19
168 -96 234 -159 l57 -54 7 27 c10 40 -3 202 -21 262 -15 51 -44 83 -75 83 -8
-1 -30 -7 -49 -15z m89 -37 c11 -18 20 -37 20 -43 -1 -5 -8 4 -17 20 -9 17
-23 35 -32 42 -11 8 -12 12 -3 13 7 0 21 -15 32 -32z m27 -80 c-3 -8 -6 -5 -6
6 -1 11 2 17 5 13 3 -3 4 -12 1 -19z"/>
<path d="M682 1198 c-44 -31 -74 -95 -66 -139 9 -48 41 -97 75 -115 l30 -15
-30 42 c-53 72 -51 152 5 219 31 36 29 37 -14 8z"/>
<path d="M1162 1175 c46 -65 46 -130 1 -198 -34 -49 -19 -52 23 -5 34 36 44
63 44 112 0 37 -6 52 -31 81 -51 58 -75 64 -37 10z"/>
<path d="M801 1077 c-1 -32 4 -40 31 -57 43 -26 49 -16 10 18 -17 15 -33 38
-35 52 -3 17 -5 13 -6 -13z"/>
<path d="M1040 1085 c0 -9 -16 -31 -35 -51 -46 -45 -44 -50 5 -18 31 21 40 33
40 55 0 16 -2 29 -5 29 -3 0 -5 -7 -5 -15z"/>
<path d="M471 1020 c0 -19 3 -40 7 -46 13 -19 56 -44 77 -44 17 0 15 3 -10 18
-37 23 -49 38 -63 77 l-10 30 -1 -35z"/>
<path d="M1355 1006 c-13 -26 -33 -47 -55 -58 -34 -18 -35 -18 -8 -18 16 0 41
12 59 28 24 21 30 34 27 58 l-3 30 -20 -40z"/>
<path d="M420 992 c0 -39 37 -82 71 -82 21 0 21 1 -5 21 -14 11 -35 37 -46 57
l-19 37 -1 -33z"/>
<path d="M1410 990 c-7 -17 -26 -42 -42 -55 -25 -21 -27 -25 -10 -25 31 0 72
45 72 80 0 38 -4 38 -20 0z"/>
<path d="M580 981 c0 -11 9 -25 21 -31 30 -16 31 -9 3 23 -21 25 -24 26 -24 8z"/>
<path d="M1242 968 c-25 -29 -18 -37 12 -15 10 7 17 20 15 29 -3 11 -10 8 -27
-14z"/>
<path d="M600 890 c-14 -4 -49 -8 -79 -9 -47 -1 -52 -3 -41 -16 19 -23 -1 -40
-29 -26 -19 11 -21 9 -21 -22 0 -23 8 -41 28 -60 47 -45 97 -60 222 -65 68 -3
118 -9 122 -16 11 -17 40 63 33 91 -3 13 -24 44 -46 68 -54 58 -119 77 -189
55z m101 -51 c49 -17 79 -48 79 -81 0 -27 -1 -28 -55 -28 -69 0 -195 44 -195
69 1 39 102 63 171 40z"/>
<path d="M1135 890 c-54 -17 -125 -98 -125 -143 0 -26 31 -82 39 -70 3 6 58
13 121 15 130 6 185 23 225 70 14 17 25 42 25 59 0 27 -2 29 -20 19 -25 -14
-43 -4 -35 19 5 16 -3 19 -57 24 -35 4 -81 8 -103 11 -22 3 -53 1 -70 -4z
m161 -57 c19 -7 26 -35 12 -49 -47 -43 -229 -72 -242 -38 -11 30 30 78 80 94
27 9 121 4 150 -7z"/>
<path d="M454 731 c7 -11 46 -35 46 -28 0 3 -12 12 -26 22 -15 9 -23 12 -20 6z"/>
<path d="M1365 719 c-16 -10 -25 -19 -19 -19 7 0 22 9 35 20 30 24 23 24 -16
-1z"/>
<path d="M796 592 c-8 -16 -12 -32 -9 -36 4 -3 13 8 20 25 17 41 9 50 -11 11z"/>
<path d="M1044 575 c9 -30 12 -32 14 -15 2 13 -3 29 -11 37 -13 13 -13 10 -3
-22z"/>
<path d="M535 545 c-49 -31 -84 -32 -120 -3 l-27 21 17 -32 c9 -18 30 -38 46
-45 17 -7 36 -23 42 -36 7 -12 22 -29 34 -37 21 -14 22 -14 11 14 -15 41 -3
82 28 93 20 8 36 5 71 -10 42 -18 48 -19 69 -5 13 8 28 25 35 36 11 21 10 21
-12 5 -31 -22 -65 -20 -96 4 -33 26 -49 25 -98 -5z"/>
<path d="M1108 542 c36 -50 53 -55 105 -32 35 15 51 18 71 10 31 -11 43 -52
28 -92 -9 -26 -9 -27 9 -17 11 6 25 22 31 35 7 14 26 31 44 39 18 8 40 28 49
46 l17 32 -27 -21 c-36 -29 -71 -28 -120 3 -49 30 -76 31 -100 5 -24 -26 -65
-25 -101 3 l-29 22 23 -33z"/>
<path d="M781 524 c0 -11 3 -14 6 -6 3 7 2 16 -1 19 -3 4 -6 -2 -5 -13z"/>
<path d="M877 523 c-16 -16 -6 -50 19 -62 46 -21 113 34 72 60 -16 10 -82 12
-91 2z"/>
<path d="M1101 500 c15 -30 28 -40 54 -39 18 0 17 1 -3 10 -13 5 -33 19 -43
32 l-20 22 12 -25z"/>
<path d="M729 494 c-7 -9 -22 -20 -34 -24 -20 -9 -19 -9 2 -9 22 -1 53 23 53
40 0 13 -6 11 -21 -7z"/>
</g>
</svg>
